<?xml version="1.0" encoding="UTF-8"?>
<svg width="195px" height="35px" viewBox="0 0 195 35" version="1.1" xmlns="http://www.w3.org/2000/svg" xmlns:xlink="http://www.w3.org/1999/xlink">
    <!-- Generator: Sketch 52.5 (67469) - http://www.bohemiancoding.com/sketch -->
    <title>3dmath-logo</title>
    <desc>Created with Sketch.</desc>
    <defs>
        <polygon id="path-1" points="6.48146754e-05 0.375 41.545 0.375 41.545 31.9999 6.48146754e-05 31.9999"></polygon>
    </defs>
    <g id="Page-1" stroke="none" stroke-width="1" fill="none" fill-rule="evenodd">
        <g id="Desktop-HD" transform="translate(-559.000000, -12.000000)">
            <g id="NAV">
                <g id="3dmath-logo" transform="translate(559.000000, 11.000000)">
                    <path d="M58.56,24.592 L57.504,24.704 L57.184,22.624 L53.152,22.624 L53.152,26.672 L57.936,26.672 L57.936,27.696 L53.152,27.696 L53.152,30.976 L54.992,30.976 L54.992,32 L50.672,32 L50.672,30.976 L51.984,30.976 L51.984,22.624 L50.672,22.624 L50.672,21.6 L58.224,21.6 L58.56,24.592 Z M63.472,24.752 C63.9840026,24.752 64.3893318,24.8746654 64.688,25.12 L64.96,26.912 L64.048,27.024 L63.776,25.808 C63.5946658,25.7439997 63.4133342,25.712 63.232,25.712 C62.8159979,25.712 62.4693347,25.8853316 62.192,26.232 C61.9146653,26.5786684 61.776,27.0293306 61.776,27.584 L61.776,31.088 L63.424,31.088 L63.424,32 L59.408,32 L59.408,31.088 L60.656,31.088 L60.656,25.792 L59.376,25.792 L59.376,24.88 L61.712,24.88 L61.712,26.16 C61.8506674,25.7653314 62.0773318,25.4320014 62.392,25.16 C62.7066682,24.8879986 63.0666646,24.752 63.472,24.752 Z M73.264,28.432 C73.264,29.5093387 72.9440032,30.3999965 72.304,31.104 C71.6639968,31.8080035 70.7946722,32.16 69.696,32.16 C68.6186613,32.16 67.7733364,31.8186701 67.16,31.136 C66.5466636,30.4533299 66.24,29.5733387 66.24,28.496 C66.24,27.4613282 66.5386637,26.573337 67.136,25.832 C67.7333363,25.090663 68.6079942,24.72 69.76,24.72 C70.9226725,24.72 71.7973304,25.0853297 72.384,25.816 C72.9706696,26.5466703 73.264,27.4186616 73.264,28.432 Z M72.08,28.416 C72.08,27.6053293 71.8746687,26.9466692 71.464,26.44 C71.0533313,25.9333308 70.4746704,25.68 69.728,25.68 C68.9813296,25.68 68.408002,25.9413307 68.008,26.464 C67.607998,26.9866693 67.408,27.6426627 67.408,28.432 C67.408,29.2106706 67.6053314,29.866664 68,30.4 C68.3946686,30.933336 68.9706629,31.2 69.728,31.2 C70.4853371,31.2 71.0666646,30.9360026 71.472,30.408 C71.8773354,29.8799974 72.08,29.216004 72.08,28.416 Z M82.88,32 L79.28,32 L79.28,31.088 L80.512,31.088 L80.512,27.776 C80.512,27.0079962 80.3573349,26.4666682 80.048,26.152 C79.7386651,25.8373318 79.3440024,25.68 78.864,25.68 C78.2239968,25.68 77.7093353,25.8906646 77.32,26.312 C76.9306647,26.7333354 76.7253334,27.2159973 76.704,27.76 L76.704,31.088 L77.952,31.088 L77.952,32 L74.336,32 L74.336,31.088 L75.584,31.088 L75.584,25.792 L74.304,25.792 L74.304,24.88 L76.704,24.88 L76.704,26.144 C77.2160026,25.2053286 78.0479942,24.736 79.2,24.736 C79.8933368,24.736 80.4746643,24.9493312 80.944,25.376 C81.4133357,25.8026688 81.648,26.4906619 81.648,27.44 L81.648,31.088 L82.88,31.088 L82.88,32 Z M88.88,30.08 C88.687999,31.4666736 87.9360066,32.16 86.624,32.16 C85.9093298,32.16 85.3626686,31.9573354 84.984,31.552 C84.6053314,31.1466646 84.416,30.5973368 84.416,29.904 L84.416,25.776 L83.264,25.776 L83.264,24.88 L84.416,24.88 L84.416,22.592 L85.536,22.592 L85.536,24.88 L88.32,24.88 L88.32,25.776 L85.536,25.776 L85.536,29.76 C85.536,30.1866688 85.6293324,30.5306654 85.816,30.792 C86.0026676,31.0533346 86.3093312,31.184 86.736,31.184 C87.0133347,31.184 87.2719988,31.0986675 87.512,30.928 C87.7520012,30.7573325 87.9253328,30.3840029 88.032,29.808 L88.88,30.08 Z M89.888,27.824 L93.584,27.824 L93.584,28.8 L89.888,28.8 L89.888,27.824 Z M102.944,32 L95.2,32 L95.2,30.976 L96.512,30.976 L96.512,22.624 L95.2,22.624 L95.2,21.6 L102.8,21.6 L103.12,24.544 L102.096,24.656 L101.776,22.624 L97.68,22.624 L97.68,26.208 L102.592,26.208 L102.592,27.232 L97.68,27.232 L97.68,30.976 L101.92,30.976 L102.24,28.944 L103.248,29.056 L102.944,32 Z M112.96,32 L109.36,32 L109.36,31.088 L110.592,31.088 L110.592,27.776 C110.592,27.0079962 110.437335,26.4666682 110.128,26.152 C109.818665,25.8373318 109.424002,25.68 108.944,25.68 C108.303997,25.68 107.789335,25.8906646 107.4,26.312 C107.010665,26.7333354 106.805333,27.2159973 106.784,27.76 L106.784,31.088 L108.032,31.088 L108.032,32 L104.416,32 L104.416,31.088 L105.664,31.088 L105.664,25.792 L104.384,25.792 L104.384,24.88 L106.784,24.88 L106.784,26.144 C107.296003,25.2053286 108.127994,24.736 109.28,24.736 C109.973337,24.736 110.554664,24.9493312 111.024,25.376 C111.493336,25.8026688 111.728,26.4906619 111.728,27.44 L111.728,31.088 L112.96,31.088 L112.96,32 Z M121.664,32 L119.312,32 L119.312,30.56 C119.077332,30.9866688 118.757335,31.3599984 118.352,31.68 C117.946665,32.0000016 117.41867,32.16 116.768,32.16 C115.850662,32.16 115.112003,31.8480031 114.552,31.224 C113.991997,30.5999969 113.712,29.7333389 113.712,28.624 C113.712,27.6746619 113.957331,26.7893374 114.448,25.968 C114.938669,25.1466626 115.765328,24.736 116.928,24.736 C118.037339,24.736 118.831998,25.1679957 119.312,26.032 L119.312,21.904 L117.584,21.904 L117.584,20.992 L120.432,20.992 L120.432,31.088 L121.664,31.088 L121.664,32 Z M119.312,28.848 L119.312,27.712 C119.290667,27.1146637 119.072002,26.6293352 118.656,26.256 C118.239998,25.8826648 117.749336,25.696 117.184,25.696 C116.394663,25.696 115.816002,25.9839971 115.448,26.56 C115.079998,27.1360029 114.896,27.7973296 114.896,28.544 C114.896,29.418671 115.101331,30.0799978 115.512,30.528 C115.922669,30.9760022 116.43733,31.2 117.056,31.2 C117.696003,31.2 118.226665,30.9413359 118.648,30.424 C119.069335,29.9066641 119.290667,29.381336 119.312,28.848 Z M136.16,26.784 C136.16,28.309341 135.693338,29.5599951 134.76,30.536 C133.826662,31.5120049 132.538675,32 130.896,32 L126.192,32 L126.192,30.992 L127.504,30.992 L127.504,22.608 L126.192,22.608 L126.192,21.6 L130.848,21.6 C132.544008,21.6 133.853329,22.0879951 134.776,23.064 C135.698671,24.0400049 136.16,25.2799925 136.16,26.784 Z M134.912,26.8 C134.912,25.541327 134.56267,24.5280038 133.864,23.76 C133.16533,22.9919962 132.154673,22.608 130.832,22.608 L128.672,22.608 L128.672,30.992 L130.832,30.992 C132.154673,30.992 133.16533,30.6160038 133.864,29.864 C134.56267,29.1119962 134.912,28.0906731 134.912,26.8 Z M143.76,29.952 C143.664,30.560003 143.360003,31.0799978 142.848,31.512 C142.335997,31.9440022 141.642671,32.16 140.768,32.16 C139.765328,32.16 138.95467,31.8453365 138.336,31.216 C137.71733,30.5866635 137.408,29.6960058 137.408,28.544 C137.408,27.4346611 137.70133,26.5226702 138.288,25.808 C138.87467,25.0933298 139.669328,24.736 140.672,24.736 C141.653338,24.736 142.399997,25.0453302 142.912,25.664 C143.424003,26.2826698 143.685333,27.0133291 143.696,27.856 C143.696,28.1333347 143.664,28.4159986 143.6,28.704 L138.592,28.704 C138.656,30.3680083 139.407993,31.2 140.848,31.2 C141.413336,31.2 141.855998,31.066668 142.176,30.8 C142.496002,30.533332 142.709333,30.1813355 142.816,29.744 L143.76,29.952 Z M142.512,27.872 C142.565334,27.338664 142.440002,26.8373357 142.136,26.368 C141.831998,25.8986643 141.333337,25.664 140.64,25.664 C139.978663,25.664 139.493335,25.8826645 139.184,26.32 C138.874665,26.7573355 138.682667,27.2746637 138.608,27.872 L142.512,27.872 Z M152.32,25.792 L151.456,25.792 L148.848,32 L147.984,32 L145.264,25.792 L144.432,25.792 L144.432,24.88 L147.712,24.88 L147.712,25.792 L146.48,25.792 L148.464,30.48 L148.56,30.48 L150.336,25.792 L149.2,25.792 L149.2,24.88 L152.32,24.88 L152.32,25.792 Z M159.424,29.952 C159.328,30.560003 159.024003,31.0799978 158.512,31.512 C157.999997,31.9440022 157.306671,32.16 156.432,32.16 C155.429328,32.16 154.61867,31.8453365 154,31.216 C153.38133,30.5866635 153.072,29.6960058 153.072,28.544 C153.072,27.4346611 153.36533,26.5226702 153.952,25.808 C154.53867,25.0933298 155.333328,24.736 156.336,24.736 C157.317338,24.736 158.063997,25.0453302 158.576,25.664 C159.088003,26.2826698 159.349333,27.0133291 159.36,27.856 C159.36,28.1333347 159.328,28.4159986 159.264,28.704 L154.256,28.704 C154.32,30.3680083 155.071993,31.2 156.512,31.2 C157.077336,31.2 157.519998,31.066668 157.84,30.8 C158.160002,30.533332 158.373333,30.1813355 158.48,29.744 L159.424,29.952 Z M158.176,27.872 C158.229334,27.338664 158.104002,26.8373357 157.8,26.368 C157.495998,25.8986643 156.997337,25.664 156.304,25.664 C155.642663,25.664 155.157335,25.8826645 154.848,26.32 C154.538665,26.7573355 154.346667,27.2746637 154.272,27.872 L158.176,27.872 Z M163.92,32 L160.304,32 L160.304,31.088 L161.552,31.088 L161.552,21.904 L160.288,21.904 L160.288,20.992 L162.672,20.992 L162.672,31.088 L163.92,31.088 L163.92,32 Z M171.856,28.432 C171.856,29.5093387 171.536003,30.3999965 170.896,31.104 C170.255997,31.8080035 169.386672,32.16 168.288,32.16 C167.210661,32.16 166.365336,31.8186701 165.752,31.136 C165.138664,30.4533299 164.832,29.5733387 164.832,28.496 C164.832,27.4613282 165.130664,26.573337 165.728,25.832 C166.325336,25.090663 167.199994,24.72 168.352,24.72 C169.514672,24.72 170.38933,25.0853297 170.976,25.816 C171.56267,26.5466703 171.856,27.4186616 171.856,28.432 Z M170.672,28.416 C170.672,27.6053293 170.466669,26.9466692 170.056,26.44 C169.645331,25.9333308 169.06667,25.68 168.32,25.68 C167.57333,25.68 167.000002,25.9413307 166.6,26.464 C166.199998,26.9866693 166,27.6426627 166,28.432 C166,29.2106706 166.197331,29.866664 166.592,30.4 C166.986669,30.933336 167.562663,31.2 168.32,31.2 C169.077337,31.2 169.658665,30.9360026 170.064,30.408 C170.469335,29.8799974 170.672,29.216004 170.672,28.416 Z M180.64,28.24 C180.64,28.8693365 180.530668,29.4853303 180.312,30.088 C180.093332,30.6906697 179.746669,31.1866647 179.272,31.576 C178.797331,31.9653353 178.170671,32.16 177.392,32.16 C176.314661,32.16 175.530669,31.760004 175.04,30.96 L175.04,34.496 L176.688,34.496 L176.688,35.408 L172.656,35.408 L172.656,34.496 L173.92,34.496 L173.92,25.792 L172.64,25.792 L172.64,24.88 L175.04,24.88 L175.04,26.368 C175.253334,25.9413312 175.562665,25.5626683 175.968,25.232 C176.373335,24.9013317 176.906663,24.736 177.568,24.736 C178.485338,24.736 179.226664,25.0453302 179.792,25.664 C180.357336,26.2826698 180.64,27.1413278 180.64,28.24 Z M179.456,28.336 C179.456,27.4826624 179.248002,26.8293356 178.832,26.376 C178.415998,25.9226644 177.89867,25.696 177.28,25.696 C176.639997,25.696 176.112002,25.9493308 175.696,26.456 C175.279998,26.9626692 175.061333,27.4879973 175.04,28.032 L175.04,29.088 C175.04,29.6853363 175.247998,30.1866646 175.664,30.592 C176.080002,30.9973354 176.58133,31.2 177.168,31.2 C177.968004,31.2 178.549332,30.9120029 178.912,30.336 C179.274668,29.7599971 179.456,29.0933371 179.456,28.336 Z M188.208,29.952 C188.112,30.560003 187.808003,31.0799978 187.296,31.512 C186.783997,31.9440022 186.090671,32.16 185.216,32.16 C184.213328,32.16 183.40267,31.8453365 182.784,31.216 C182.16533,30.5866635 181.856,29.6960058 181.856,28.544 C181.856,27.4346611 182.14933,26.5226702 182.736,25.808 C183.32267,25.0933298 184.117328,24.736 185.12,24.736 C186.101338,24.736 186.847997,25.0453302 187.36,25.664 C187.872003,26.2826698 188.133333,27.0133291 188.144,27.856 C188.144,28.1333347 188.112,28.4159986 188.048,28.704 L183.04,28.704 C183.104,30.3680083 183.855993,31.2 185.296,31.2 C185.861336,31.2 186.303998,31.066668 186.624,30.8 C186.944002,30.533332 187.157333,30.1813355 187.264,29.744 L188.208,29.952 Z M186.96,27.872 C187.013334,27.338664 186.888002,26.8373357 186.584,26.368 C186.279998,25.8986643 185.781337,25.664 185.088,25.664 C184.426663,25.664 183.941335,25.8826645 183.632,26.32 C183.322665,26.7573355 183.130667,27.2746637 183.056,27.872 L186.96,27.872 Z M193.312,24.752 C193.824003,24.752 194.229332,24.8746654 194.528,25.12 L194.8,26.912 L193.888,27.024 L193.616,25.808 C193.434666,25.7439997 193.253334,25.712 193.072,25.712 C192.655998,25.712 192.309335,25.8853316 192.032,26.232 C191.754665,26.5786684 191.616,27.0293306 191.616,27.584 L191.616,31.088 L193.264,31.088 L193.264,32 L189.248,32 L189.248,31.088 L190.496,31.088 L190.496,25.792 L189.216,25.792 L189.216,24.88 L191.552,24.88 L191.552,26.16 C191.690667,25.7653314 191.917332,25.4320014 192.232,25.16 C192.546668,24.8879986 192.906665,24.752 193.312,24.752 Z" id="Front-End-Developer" fill="#FFFFFF"></path>
                    <path d="M59.536,2.552 L64.784,2.552 L64.784,5.176 L63.984,5.176 L63.984,15 L59.488,15 L54.8,7.784 L54.8,12.376 L55.568,12.376 L55.568,15 L50.32,15 L50.32,12.376 L51.12,12.376 L51.12,5.176 L50.32,5.176 L50.32,2.552 L56.096,2.552 L60.304,8.968 L60.304,5.176 L59.536,5.176 L59.536,2.552 Z M66.128,5.224 L66.128,2.552 L69.392,2.552 L69.392,5.224 L66.128,5.224 Z M65.36,15 L65.36,12.376 L66.064,12.376 L66.064,8.728 L65.36,8.728 L65.36,6.104 L69.744,6.104 L69.744,12.376 L70.448,12.376 L70.448,15 L65.36,15 Z M75.68,15.224 C74.154659,15.224 72.9653376,14.8266706 72.112,14.032 C71.2586624,13.2373294 70.832,12.077341 70.832,10.552 C70.832,9.02665904 71.2586624,7.86667064 72.112,7.072 C72.9653376,6.27732936 74.1493258,5.88 75.664,5.88 C76.4000037,5.88 77.1039966,5.98133232 77.776,6.184 C78.4480034,6.38666768 78.9706648,6.61599872 79.344,6.872 L79.344,10.04 L76.592,10.04 L76.592,9.752 C76.592,9.39999824 76.5173341,9.14133416 76.368,8.976 C76.2186659,8.81066584 75.9840016,8.728 75.664,8.728 C75.0453302,8.728 74.736,9.06932992 74.736,9.752 L74.736,11.128 C74.736,11.9600042 75.2106619,12.376 76.16,12.376 C77.0453378,12.376 78.0746608,12.280001 79.248,12.088 L79.248,14.6 C78.8853315,14.7600008 78.3760033,14.9039994 77.72,15.032 C77.0639967,15.1600006 76.3840035,15.224 75.68,15.224 Z M89.536,12.376 L90.224,12.376 L90.224,15 L86.304,15 L84.656,11.928 L84.272,11.928 L84.272,15 L79.888,15 L79.888,12.376 L80.592,12.376 L80.592,5.176 L79.888,5.176 L79.888,2.552 L84.272,2.552 L84.272,9.048 L84.656,9.048 L86.64,6.104 L90.016,6.104 L90.016,8.728 L89.36,8.728 L88,10.248 L89.536,12.376 Z M101.776,15.224 C99.7599899,15.224 98.2053388,14.7120051 97.112,13.688 C96.0186612,12.6639949 95.472,11.0266779 95.472,8.776 C95.472,4.47731184 97.5626458,2.328 101.744,2.328 C102.757338,2.328 103.698662,2.45066544 104.568,2.696 C105.437338,2.94133456 106.085331,3.21333184 106.512,3.512 L106.512,7.512 L102.672,7.512 L102.672,6.36 C102.672,5.95466464 102.581334,5.65600096 102.4,5.464 C102.218666,5.27199904 101.946668,5.176 101.584,5.176 C101.221332,5.176 100.949334,5.27199904 100.768,5.464 C100.586666,5.65600096 100.496,5.95466464 100.496,6.36 L100.496,11.192 C100.496,11.5973354 100.586666,11.895999 100.768,12.088 C100.949334,12.280001 101.221332,12.376 101.584,12.376 C101.946668,12.376 102.218666,12.280001 102.4,12.088 C102.581334,11.895999 102.672,11.5973354 102.672,11.192 L102.672,9.896 L106.512,9.896 L106.512,14.04 C106.074664,14.3386682 105.426671,14.6106654 104.568,14.856 C103.709329,15.1013346 102.778672,15.224 101.776,15.224 Z M111.856,15.224 C110.341326,15.224 109.157338,14.8266706 108.304,14.032 C107.450662,13.2373294 107.024,12.077341 107.024,10.552 C107.024,9.02665904 107.450662,7.86667064 108.304,7.072 C109.157338,6.27732936 110.341326,5.88 111.856,5.88 C113.392008,5.88 114.581329,6.28266264 115.424,7.088 C116.266671,7.89333736 116.688,9.04799248 116.688,10.552 C116.688,12.077341 116.261338,13.2373294 115.408,14.032 C114.554662,14.8266706 113.370674,15.224 111.856,15.224 Z M111.856,12.376 C112.165335,12.376 112.397333,12.2933342 112.552,12.128 C112.706667,11.9626658 112.784,11.7040018 112.784,11.352 L112.784,9.752 C112.784,9.39999824 112.706667,9.14133416 112.552,8.976 C112.397333,8.81066584 112.165335,8.728 111.856,8.728 C111.546665,8.728 111.314667,8.81066584 111.16,8.976 C111.005333,9.14133416 110.928,9.39999824 110.928,9.752 L110.928,11.352 C110.928,11.7040018 111.005333,11.9626658 111.16,12.128 C111.314667,12.2933342 111.546665,12.376 111.856,12.376 Z M121.152,15.224 C120.021328,15.224 119.17067,14.9493361 118.6,14.4 C118.02933,13.8506639 117.744,12.9253398 117.744,11.624 L117.744,8.728 L117.04,8.728 L117.04,6.104 C117.445335,6.104 117.749332,6.00000104 117.952,5.792 C118.154668,5.58399896 118.256,5.29866848 118.256,4.936 L118.256,4.216 L121.648,4.216 L121.648,6.104 L123.808,6.104 L123.808,8.728 L121.648,8.728 L121.648,11.352 C121.648,11.7040018 121.725333,11.9626658 121.88,12.128 C122.034667,12.2933342 122.266665,12.376 122.576,12.376 C122.981335,12.376 123.423998,12.3280005 123.904,12.232 L123.904,14.744 C123.605332,14.8613339 123.202669,14.9706662 122.696,15.072 C122.189331,15.1733338 121.674669,15.224 121.152,15.224 Z M128.368,15.224 C127.237328,15.224 126.38667,14.9493361 125.816,14.4 C125.24533,13.8506639 124.96,12.9253398 124.96,11.624 L124.96,8.728 L124.256,8.728 L124.256,6.104 C124.661335,6.104 124.965332,6.00000104 125.168,5.792 C125.370668,5.58399896 125.472,5.29866848 125.472,4.936 L125.472,4.216 L128.864,4.216 L128.864,6.104 L131.024,6.104 L131.024,8.728 L128.864,8.728 L128.864,11.352 C128.864,11.7040018 128.941333,11.9626658 129.096,12.128 C129.250667,12.2933342 129.482665,12.376 129.792,12.376 C130.197335,12.376 130.639998,12.3280005 131.12,12.232 L131.12,14.744 C130.821332,14.8613339 130.418669,14.9706662 129.912,15.072 C129.405331,15.1733338 128.890669,15.224 128.368,15.224 Z M138.464,5.88 C138.677334,5.88 138.879999,5.90133312 139.072,5.944 C139.264001,5.98666688 139.423999,6.03999968 139.552,6.104 L139.552,9.16 C139.114664,8.97866576 138.645336,8.888 138.144,8.888 C137.471997,8.888 136.954668,9.06399824 136.592,9.416 C136.229332,9.76800176 136.048,10.2906632 136.048,10.984 L136.048,12.376 L137.488,12.376 L137.488,15 L131.664,15 L131.664,12.376 L132.368,12.376 L132.368,8.728 L131.664,8.728 L131.664,6.104 L136.048,6.104 L136.048,7.272 C136.346668,6.82399776 136.687998,6.4800012 137.072,6.24 C137.456002,5.9999988 137.919997,5.88 138.464,5.88 Z M144.832,15.224 C143.317326,15.224 142.133338,14.8266706 141.28,14.032 C140.426662,13.2373294 140,12.077341 140,10.552 C140,9.02665904 140.426662,7.86667064 141.28,7.072 C142.133338,6.27732936 143.317326,5.88 144.832,5.88 C146.336008,5.88 147.42133,6.27199608 148.088,7.056 C148.75467,7.84000392 149.088,8.81332752 149.088,9.976 L149.088,11.128 L143.904,11.128 L143.904,11.224 C143.904,11.6186686 144.021332,11.9093324 144.256,12.096 C144.490668,12.2826676 144.879997,12.376 145.424,12.376 C146.07467,12.376 146.69333,12.3280005 147.28,12.232 C147.86667,12.1359995 148.378664,12.0133341 148.816,11.864 L148.816,14.424 C148.442665,14.6266677 147.896004,14.8106658 147.176,14.976 C146.455996,15.1413342 145.674671,15.224 144.832,15.224 Z M145.76,9.368 L145.76,9.176 C145.76,8.81333152 145.682667,8.5520008 145.528,8.392 C145.373333,8.2319992 145.141335,8.152 144.832,8.152 C144.522665,8.152 144.290667,8.23466584 144.136,8.4 C143.981333,8.56533416 143.904,8.82399824 143.904,9.176 L143.904,9.368 L145.76,9.368 Z M149.568,15.016 L149.568,12.376 L150.272,12.376 L150.272,5.176 L149.568,5.176 L149.568,2.552 L153.952,2.552 L153.952,12.376 L154.656,12.376 L154.656,15.016 L149.568,15.016 Z M155.168,15.016 L155.168,12.376 L155.872,12.376 L155.872,5.176 L155.168,5.176 L155.168,2.552 L159.552,2.552 L159.552,12.376 L160.256,12.376 L160.256,15.016 L155.168,15.016 Z" id="Nick-Cottrell" fill="#FFFFFF"></path>
                    <path d="M25.6783,23.3952 L24.5593,23.4942 C24.3853,23.5092 24.2553,23.6642 24.2713,23.8382 C24.2863,24.0132 24.4413,24.1432 24.6163,24.1272 L25.7343,24.0282 C25.9093,24.0132 26.0383,23.8582 26.0233,23.6842 C26.0083,23.5092 25.8533,23.3792 25.6783,23.3952" id="Fill-1" fill="#FFFFFF"></path>
                    <path d="M14.4913,24.383 L13.3723,24.482 C13.1983,24.497 13.0683,24.652 13.0843,24.826 C13.0993,25.002 13.2543,25.131 13.4293,25.115 L14.5473,25.016 C14.7223,25.001 14.8513,24.847 14.8363,24.672 C14.8203,24.497 14.6663,24.368 14.4913,24.383" id="Fill-3" fill="#FFFFFF"></path>
                    <path d="M23.441,23.5925 L22.322,23.6915 C22.148,23.7065 22.018,23.8615 22.034,24.0365 C22.049,24.2115 22.203,24.3405 22.379,24.3245 L23.497,24.2265 C23.672,24.2105 23.801,24.0565 23.786,23.8815 C23.77,23.7065 23.616,23.5775 23.441,23.5925" id="Fill-5" fill="#FFFFFF"></path>
                    <path d="M18.9664,23.988 L17.8474,24.087 C17.6724,24.102 17.5434,24.257 17.5584,24.431 C17.5744,24.606 17.7284,24.736 17.9034,24.72 L19.0224,24.621 C19.1964,24.606 19.3264,24.451 19.3114,24.277 C19.2954,24.102 19.1414,23.972 18.9664,23.988" id="Fill-7" fill="#FFFFFF"></path>
                    <path d="M7.7794,24.9758 L6.6604,25.0748 C6.4854,25.0898 6.3564,25.2448 6.3714,25.4198 C6.3874,25.5948 6.5414,25.7238 6.7164,25.7078 L7.8354,25.6098 C8.0094,25.5938 8.1394,25.4398 8.1234,25.2648 C8.1084,25.0898 7.9544,24.9608 7.7794,24.9758" id="Fill-9" fill="#FFFFFF"></path>
                    <path d="M5.5416,25.1736 L4.4226,25.2726 C4.2486,25.2876 4.1186,25.4426 4.1346,25.6166 C4.1496,25.7926 4.3046,25.9216 4.4796,25.9056 L5.5976,25.8066 C5.7726,25.7916 5.9016,25.6376 5.8866,25.4626 C5.8716,25.2876 5.7166,25.1576 5.5416,25.1736" id="Fill-11" fill="#FFFFFF"></path>
                    <path d="M3.3043,25.3713 L2.1853,25.4703 C2.0113,25.4853 1.8813,25.6403 1.8973,25.8143 C1.9123,25.9893 2.0663,26.1193 2.2423,26.1033 L3.3603,26.0043 C3.5353,25.9893 3.6643,25.8343 3.6493,25.6603 C3.6333,25.4853 3.4793,25.3553 3.3043,25.3713" id="Fill-13" fill="#FFFFFF"></path>
                    <path d="M21.2037,23.7903 L20.0847,23.8893 C19.9107,23.9043 19.7807,24.0593 19.7967,24.2333 C19.8117,24.4093 19.9657,24.5383 20.1407,24.5223 L21.2597,24.4233 C21.4347,24.4083 21.5637,24.2543 21.5487,24.0793 C21.5327,23.9043 21.3787,23.7753 21.2037,23.7903" id="Fill-15" fill="#FFFFFF"></path>
                    <path d="M10.0167,24.7785 L8.8977,24.8775 C8.7227,24.8925 8.5937,25.0475 8.6087,25.2215 C8.6247,25.3965 8.7787,25.5265 8.9537,25.5105 L10.0727,25.4115 C10.2477,25.3965 10.3767,25.2415 10.3617,25.0675 C10.3457,24.8925 10.1917,24.7625 10.0167,24.7785" id="Fill-17" fill="#FFFFFF"></path>
                    <path d="M12.254,24.5808 L11.135,24.6798 C10.961,24.6948 10.831,24.8498 10.847,25.0238 C10.862,25.1988 11.016,25.3288 11.191,25.3128 L12.31,25.2138 C12.485,25.1988 12.614,25.0438 12.599,24.8698 C12.583,24.6948 12.429,24.5648 12.254,24.5808" id="Fill-19" fill="#FFFFFF"></path>
                    <path d="M19.941,5.3171 L20.376,6.4311 C20.44,6.5941 20.624,6.6751 20.788,6.6111 C20.951,6.5471 21.032,6.3631 20.968,6.1991 L20.533,5.0861 C20.469,4.9221 20.285,4.8411 20.122,4.9051 C19.958,4.9691 19.877,5.1531 19.941,5.3171" id="Fill-21" fill="#FFFFFF"></path>
                    <path d="M22.5499,11.9988 L22.9849,13.1118 C23.0489,13.2758 23.2329,13.3568 23.3959,13.2928 C23.5599,13.2288 23.6409,13.0448 23.5769,12.8808 L23.1419,11.7678 C23.0779,11.6038 22.8939,11.5228 22.7299,11.5868 C22.5669,11.6508 22.4859,11.8348 22.5499,11.9988" id="Fill-23" fill="#FFFFFF"></path>
                    <path d="M25.1583,18.6799 L25.5933,19.7939 C25.6573,19.9569 25.8413,20.0379 26.0053,19.9739 C26.1683,19.9099 26.2493,19.7259 26.1853,19.5619 L25.7503,18.4489 C25.6873,18.2849 25.5023,18.2039 25.3393,18.2679 C25.1753,18.3319 25.0953,18.5159 25.1583,18.6799" id="Fill-25" fill="#FFFFFF"></path>
                    <path d="M26.0279,20.9075 L26.4629,22.0205 C26.5269,22.1845 26.7109,22.2655 26.8749,22.2015 C27.0379,22.1375 27.1189,21.9535 27.0549,21.7895 L26.6199,20.6765 C26.5569,20.5125 26.3719,20.4315 26.2089,20.4955 C26.0449,20.5595 25.9639,20.7435 26.0279,20.9075" id="Fill-27" fill="#FFFFFF"></path>
                    <path d="M24.2887,16.4529 L24.7237,17.5669 C24.7877,17.7299 24.9717,17.8109 25.1357,17.7469 C25.2987,17.6829 25.3797,17.4989 25.3157,17.3349 L24.8807,16.2219 C24.8177,16.0579 24.6327,15.9769 24.4697,16.0409 C24.3057,16.1049 24.2257,16.2889 24.2887,16.4529" id="Fill-29" fill="#FFFFFF"></path>
                    <path d="M23.4195,14.2258 L23.8545,15.3388 C23.9185,15.5028 24.1025,15.5838 24.2655,15.5198 C24.4295,15.4558 24.5105,15.2718 24.4465,15.1078 L24.0115,13.9948 C23.9475,13.8308 23.7635,13.7498 23.5995,13.8138 C23.4365,13.8778 23.3555,14.0618 23.4195,14.2258" id="Fill-31" fill="#FFFFFF"></path>
                    <path d="M20.8107,7.5442 L21.2457,8.6582 C21.3097,8.8212 21.4937,8.9022 21.6577,8.8382 C21.8207,8.7742 21.9017,8.5902 21.8377,8.4262 L21.4027,7.3132 C21.3387,7.1492 21.1547,7.0682 20.9917,7.1322 C20.8277,7.1962 20.7467,7.3802 20.8107,7.5442" id="Fill-33" fill="#FFFFFF"></path>
                    <path d="M21.6803,9.7712 L22.1153,10.8852 C22.1793,11.0482 22.3633,11.1292 22.5273,11.0652 C22.6903,11.0012 22.7713,10.8172 22.7073,10.6532 L22.2723,9.5402 C22.2083,9.3762 22.0243,9.2952 21.8603,9.3592 C21.6973,9.4232 21.6163,9.6072 21.6803,9.7712" id="Fill-35" fill="#FFFFFF"></path>
                    <g id="Group-39" transform="translate(0.000000, 0.625500)">
                        <mask id="mask-2" fill="white">
                            <use xlink:href="#path-1"></use>
                        </mask>
                        <g id="Clip-38"></g>
                        <path d="M40.3922,28.1609 C40.3762,28.1999 40.3692,28.2399 40.3692,28.2789 L14.7712,31.3179 L15.7522,24.2849 L16.7852,24.1939 C16.9592,24.1779 17.0892,24.0239 17.0732,23.8489 C17.0582,23.6739 16.9042,23.5449 16.7282,23.5599 L15.8422,23.6389 L18.9212,1.5529 C18.9482,1.5539 18.9752,1.5509 19.0022,1.5449 L19.3962,2.0329 C19.3492,2.0279 19.2992,2.0339 19.2522,2.0529 C19.0882,2.1169 19.0072,2.3009 19.0712,2.4649 L19.5062,3.5779 C19.5702,3.7419 19.7542,3.8229 19.9182,3.7589 C20.0812,3.6949 20.1622,3.5109 20.0982,3.3469 L19.7612,2.4829 L40.4612,28.0559 C40.4322,28.0849 40.4082,28.1199 40.3922,28.1609 Z M14.1432,31.2179 L1.3602,25.4339 C1.3982,25.3759 1.4182,25.3069 1.4122,25.2319 C1.3962,25.0569 1.2422,24.9279 1.0672,24.9429 L0.9842,24.9509 L18.2352,1.8729 L16.8662,11.6909 L14.1432,31.2179 Z M41.5422,28.4529 C41.5422,28.4509 41.5412,28.4489 41.5412,28.4459 C41.5392,28.4349 41.5372,28.4249 41.5342,28.4139 C41.5342,28.4119 41.5332,28.4089 41.5322,28.4069 C41.5282,28.3939 41.5242,28.3819 41.5192,28.3699 C41.5182,28.3689 41.5182,28.3679 41.5172,28.3669 C41.5132,28.3559 41.5072,28.3469 41.5012,28.3369 C41.5002,28.3339 41.4982,28.3309 41.4962,28.3279 C41.4902,28.3179 41.4842,28.3079 41.4762,28.2999 C41.4752,28.2989 41.4752,28.2979 41.4752,28.2969 L41.4732,28.2949 C41.4732,28.2949 41.4722,28.2939 41.4722,28.2939 L18.9702,0.4949 C18.9692,0.4939 18.9692,0.4939 18.9682,0.4929 L18.9682,0.4919 C18.9672,0.4919 18.9672,0.4919 18.9672,0.4919 C18.9582,0.4809 18.9492,0.4709 18.9382,0.4609 L18.9332,0.4559 C18.9322,0.4549 18.9312,0.4539 18.9302,0.4529 C18.9202,0.4449 18.9102,0.4369 18.9002,0.4299 C18.8992,0.4289 18.8982,0.4289 18.8972,0.4279 L18.8922,0.4249 L18.8852,0.4209 C18.8782,0.4169 18.8712,0.4129 18.8642,0.4089 C18.8612,0.4079 18.8592,0.4059 18.8562,0.4049 C18.8512,0.4029 18.8482,0.4009 18.8442,0.3989 C18.8432,0.3989 18.8422,0.3989 18.8422,0.3979 L18.8372,0.3969 C18.8312,0.3939 18.8252,0.3919 18.8182,0.3899 C18.8172,0.3899 18.8162,0.3899 18.8152,0.3889 C18.8032,0.3849 18.7902,0.3819 18.7782,0.3799 C18.7752,0.3789 18.7722,0.3789 18.7692,0.3779 C18.7602,0.3769 18.7512,0.3759 18.7422,0.3749 C18.7402,0.3749 18.7382,0.3749 18.7362,0.3749 C18.7212,0.3739 18.7052,0.3749 18.6892,0.3759 C18.6882,0.3759 18.6862,0.3759 18.6842,0.3769 C18.6822,0.3769 18.6802,0.3769 18.6782,0.3779 C18.6532,0.3809 18.6292,0.3869 18.6052,0.3959 C18.6022,0.3969 18.5992,0.3989 18.5962,0.3999 C18.5942,0.4009 18.5912,0.4019 18.5892,0.4029 C18.5872,0.4039 18.5862,0.4049 18.5842,0.4059 C18.5742,0.4109 18.5632,0.4159 18.5532,0.4219 C18.5522,0.4229 18.5512,0.4239 18.5502,0.4239 C18.5482,0.4259 18.5462,0.4269 18.5442,0.4279 C18.5422,0.4289 18.5412,0.4299 18.5402,0.4309 C18.5322,0.4369 18.5242,0.4429 18.5162,0.4489 C18.5142,0.4509 18.5132,0.4529 18.5112,0.4539 C18.5082,0.4559 18.5052,0.4579 18.5032,0.4609 L18.5012,0.4629 C18.4952,0.4679 18.4892,0.4739 18.4842,0.4799 C18.4832,0.4819 18.4822,0.4829 18.4802,0.4839 C18.4762,0.4889 18.4732,0.4939 18.4692,0.4989 L18.4662,0.5019 L0.0632,25.1209 C0.0052,25.1989 -0.0138,25.2969 0.0102,25.3899 C0.0342,25.4839 0.0992,25.5609 0.1872,25.6009 L14.2682,31.9719 C14.2712,31.9739 14.2752,31.9739 14.2782,31.9759 C14.2852,31.9789 14.2922,31.9819 14.2992,31.9839 C14.3042,31.9859 14.3082,31.9869 14.3122,31.9879 C14.3202,31.9899 14.3272,31.9919 14.3352,31.9939 C14.3392,31.9939 14.3432,31.9949 14.3482,31.9959 C14.3552,31.9969 14.3632,31.9979 14.3712,31.9989 C14.3752,31.9989 14.3792,31.9989 14.3842,31.9999 C14.3922,31.9999 14.3992,31.9999 14.4082,31.9999 C14.4122,31.9999 14.4162,31.9989 14.4212,31.9989 C14.4262,31.9989 14.4322,31.9989 14.4372,31.9979 L41.2632,28.8129 C41.2762,28.8109 41.2892,28.8089 41.3032,28.8059 C41.3062,28.8049 41.3092,28.8039 41.3122,28.8029 C41.3232,28.7999 41.3322,28.7969 41.3432,28.7929 C41.3452,28.7919 41.3472,28.7909 41.3492,28.7899 C41.3612,28.7859 41.3722,28.7799 41.3832,28.7739 C41.3852,28.7729 41.3872,28.7709 41.3892,28.7699 C41.3982,28.7649 41.4082,28.7589 41.4162,28.7519 C41.4182,28.7509 41.4212,28.7489 41.4232,28.7469 C41.4432,28.7319 41.4622,28.7129 41.4782,28.6929 C41.4792,28.6909 41.4812,28.6879 41.4822,28.6859 C41.4892,28.6779 41.4952,28.6689 41.5002,28.6609 C41.5012,28.6579 41.5032,28.6549 41.5052,28.6519 C41.5112,28.6409 41.5162,28.6299 41.5212,28.6189 C41.5212,28.6179 41.5212,28.6179 41.5222,28.6169 L41.5222,28.6159 C41.5222,28.6159 41.5222,28.6159 41.5222,28.6159 C41.5272,28.6029 41.5312,28.5909 41.5352,28.5789 C41.5352,28.5759 41.5362,28.5729 41.5372,28.5699 C41.5392,28.5589 41.5412,28.5489 41.5422,28.5389 C41.5422,28.5359 41.5432,28.5339 41.5432,28.5309 C41.5462,28.5049 41.5462,28.4789 41.5422,28.4529 Z" id="Fill-37" fill="#FFFFFF" mask="url(#mask-2)"></path>
                    </g>
                    <path d="M38.2516,28.2678 L39.4106,28.7338 C39.5726,28.7998 39.7576,28.7208 39.8236,28.5578 C39.8896,28.3948 39.8106,28.2098 39.6476,28.1438 L38.4896,27.6778 C38.3266,27.6128 38.1416,27.6908 38.0756,27.8538 C38.0096,28.0178 38.0886,28.2028 38.2516,28.2678" id="Fill-40" fill="#FFFFFF"></path>
                    <path d="M35.9352,27.3362 L37.0932,27.8022 C37.2562,27.8672 37.4412,27.7882 37.5072,27.6262 C37.5732,27.4622 37.4942,27.2772 37.3312,27.2122 L36.1722,26.7462 C36.0102,26.6802 35.8252,26.7592 35.7592,26.9222 C35.6932,27.0852 35.7722,27.2702 35.9352,27.3362" id="Fill-42" fill="#FFFFFF"></path>
                    <path d="M31.3024,25.4719 L32.4604,25.9379 C32.6234,26.0039 32.8084,25.9249 32.8744,25.7619 C32.9404,25.5989 32.8614,25.4139 32.6984,25.3479 L31.5394,24.8819 C31.3774,24.8169 31.1914,24.8959 31.1264,25.0579 C31.0604,25.2219 31.1394,25.4069 31.3024,25.4719" id="Fill-44" fill="#FFFFFF"></path>
                    <path d="M33.6188,26.404 L34.7768,26.87 C34.9398,26.935 35.1248,26.857 35.1908,26.694 C35.2568,26.531 35.1778,26.345 35.0148,26.28 L33.8558,25.814 C33.6938,25.749 33.5088,25.827 33.4428,25.99 C33.3768,26.153 33.4558,26.339 33.6188,26.404" id="Fill-46" fill="#FFFFFF"></path>
                    <path d="M28.9859,24.5403 L30.1439,25.0063 C30.3069,25.0713 30.4919,24.9933 30.5579,24.8303 C30.6239,24.6663 30.5449,24.4813 30.3819,24.4163 L29.2229,23.9503 C29.0609,23.8853 28.8749,23.9633 28.8099,24.1263 C28.7439,24.2893 28.8229,24.4753 28.9859,24.5403" id="Fill-48" fill="#FFFFFF"></path>
                    <path d="M26.8976,23.1345 L26.9556,23.2825 L26.7966,23.2965 C26.6226,23.3115 26.4936,23.4665 26.5086,23.6405 C26.5236,23.8155 26.6786,23.9455 26.8536,23.9295 L27.3576,23.8845 L27.8276,24.0735 C27.9906,24.1395 28.1756,24.0605 28.2416,23.8975 C28.3076,23.7355 28.2286,23.5505 28.0646,23.4845 L27.6516,23.3185 L27.4896,22.9035 C27.4256,22.7395 27.2416,22.6585 27.0786,22.7225 C26.9146,22.7865 26.8336,22.9705 26.8976,23.1345" id="Fill-50" fill="#FFFFFF"></path>
                </g>
            </g>
        </g>
    </g>
</svg>